<svg id="Layer_1_copy" data-name="Layer 1 copy" xmlns="http://www.w3.org/2000/svg" viewBox="0 0 364.4 77"><defs><style>.cls-1,.cls-4{fill:#00539b}.cls-2,.cls-5{fill:#ffca38}.cls-3,.cls-6{fill:#f6a01a}.cls-4,.cls-5,.cls-6{fill-rule:evenodd}</style></defs><path class="cls-1" d="M117.6 84.3v-8.6l-1 3.5-1.6 5.5-1.7-5.6-1-3.4v8.6h-1.8V71h2l1.7 5.6.8 2.9.9-3 1.7-5.5h2v13.3Zm8.6 0v-.6a2.5 2.5 0 0 1-2.1.9c-1.5 0-2.7-1.1-2.7-3.4a3 3 0 0 1 3.2-3.2 3.6 3.6 0 0 1 1.6.3v-1c0-1-.4-1.4-1.3-1.4a3.6 3.6 0 0 0-2 .6l-.8-1.4a5.3 5.3 0 0 1 2.9-1c2 0 3 .8 3 3v7.2Zm0-4.3a2.6 2.6 0 0 0-1.5-.4 1.4 1.4 0 0 0-1.5 1.6c0 1.2.5 1.7 1.3 1.7a1.9 1.9 0 0 0 1.7-1Zm6.4 4.6a5.3 5.3 0 0 1-3-1.1l.7-1.5a4.5 4.5 0 0 0 2.3.8c.8 0 1.3-.4 1.3-1s-.5-1.1-2-2c-1.2-.6-2-1.3-2-3a2.6 2.6 0 0 1 2.9-2.7 4.5 4.5 0 0 1 2.7 1l-.8 1.5a3.6 3.6 0 0 0-2-.7c-.7 0-1 .3-1 .8s.3 1 1.7 1.7 2.3 1.5 2.3 3.2a2.8 2.8 0 0 1-3 3Zm8.8-.5a2.8 2.8 0 0 1-1.7.5c-1.3 0-1.9-1-1.9-2.6v-6h-1v-1.6h1v-3l1.8-1v4h2V76h-2v5.7c0 .7.3 1 .8 1a1.8 1.8 0 0 0 1.2-.4ZM150 80h-5.3c.1 2 .8 2.8 1.9 2.8a2.3 2.3 0 0 0 1.8-.7l1.1 1.2a4 4 0 0 1-3 1.3c-2.4 0-3.7-2-3.7-5.2 0-3.5 1.5-5.2 3.6-5.2s3.5 1.7 3.5 5.2v.6Zm-3.6-4.1c-1 0-1.5.8-1.7 2.5h3.4c-.1-1.5-.7-2.5-1.7-2.5Zm9.9.4a2.3 2.3 0 0 0-1.3-.3 1.6 1.6 0 0 0-1.4.8v7.5h-1.9v-10h1.9v.7a2.3 2.3 0 0 1 1.7-.9 2.5 2.5 0 0 1 1.4.4Zm7-3.5a1.1 1.1 0 1 1 1.2-1.1 1.1 1.1 0 0 1-1.2 1.1Zm-.9 11.5v-10h1.9v10Zm8.6 0v-6c0-1.7-.3-2.4-1.2-2.4a1.8 1.8 0 0 0-1.5 1v7.4h-1.8v-10h1.8v.7a2.4 2.4 0 0 1 2-.9c1.9 0 2.6 1.3 2.6 3.8v6.4Zm9.5 0V71h1.8v13.3Zm8.9 0v-6c0-1.7-.4-2.4-1.3-2.4a1.8 1.8 0 0 0-1.4 1v7.4h-1.9v-10h1.9v.7a2.4 2.4 0 0 1 1.9-.9c2 0 2.6 1.3 2.6 3.8v6.4Zm7.9-.2a2.8 2.8 0 0 1-1.7.5c-1.3 0-1.9-1-1.9-2.6v-6h-1v-1.6h1v-3l1.8-1v4h2V76h-2v5.7c0 .7.3 1 .8 1a1.8 1.8 0 0 0 1.2-.4Zm8.5-4.1h-5.2c.1 2 .8 2.8 1.9 2.8a2.3 2.3 0 0 0 1.8-.7l1.1 1.2a4 4 0 0 1-3 1.3c-2.4 0-3.7-2-3.7-5.2 0-3.5 1.5-5.2 3.6-5.2s3.5 1.7 3.5 5.2v.6Zm-3.5-4.1c-1 0-1.5.8-1.7 2.5h3.4c0-1.5-.7-2.5-1.7-2.5Zm9.9.4a2.3 2.3 0 0 0-1.3-.3 1.6 1.6 0 0 0-1.4.8v7.6h-1.8v-10h1.8v.6a2.2 2.2 0 0 1 1.8-.9 2.5 2.5 0 0 1 1.3.4Zm6 8v-.6a2.3 2.3 0 0 1-1.8.9c-1.8 0-3-1.4-3-5.3 0-3.4 1.1-5.1 3.1-5.1a2.3 2.3 0 0 1 1.7.7v-3.5l1.8-1v14Zm0-7.5a1.9 1.9 0 0 0-1.5-1c-1 0-1.5 1-1.5 3.4 0 2.6.5 3.6 1.5 3.6a1.8 1.8 0 0 0 1.5-.9Zm5-4a1.1 1.1 0 1 1 1.2-1.1 1.1 1.1 0 0 1-1.2 1.1Zm-.9 11.5v-10h1.8v10Zm6.6.3a5.3 5.3 0 0 1-3-1.1l.6-1.5a4.5 4.5 0 0 0 2.3.8c.9 0 1.4-.4 1.4-1s-.6-1.1-2-2c-1.2-.6-2-1.3-2-3a2.6 2.6 0 0 1 2.8-2.6 4.5 4.5 0 0 1 2.7.9l-.7 1.5a3.7 3.7 0 0 0-2-.7c-.7 0-1 .4-1 .9s.3.9 1.6 1.7c1.5.8 2.4 1.5 2.4 3.1a2.8 2.8 0 0 1-3.1 3Zm7.9 0c-2 0-3.5-1.7-3.5-5.2s1.4-5.2 3.6-5.2a3 3 0 0 1 2.8 1.7l-1.3 1.2c-.5-.9-1-1.2-1.6-1.2-1.1 0-1.6 1.3-1.6 3.5s.5 3.4 1.7 3.4c.6 0 1-.3 1.5-1l1.3 1a3.2 3.2 0 0 1-2.9 1.8Zm5.7-11.8a1.1 1.1 0 1 1 1-1.1 1.1 1.1 0 0 1-1 1.1Zm-1 11.5v-10h1.9v10Zm7.7.3a2.2 2.2 0 0 1-1.7-.8v3.3l-1.9 1V74.4h1.9v.6a2.3 2.3 0 0 1 1.8-.9c1.8 0 3 1.4 3 5.3 0 3.4-1.1 5.2-3.1 5.2Zm-.2-8.7a1.8 1.8 0 0 0-1.5.9V82a1.9 1.9 0 0 0 1.6.9c1 0 1.4-1 1.4-3.3 0-2.6-.5-3.7-1.5-3.7Zm5.3 8.4V71.5l1.8-1v13.8Zm5-11.5a1.1 1.1 0 1 1 1.2-1.1 1.1 1.1 0 0 1-1.2 1.1Zm-.9 11.5v-10h1.9v10Zm8.6 0v-6c0-1.7-.3-2.4-1.2-2.4a1.8 1.8 0 0 0-1.5 1v7.4h-1.8v-10h1.8v.7a2.4 2.4 0 0 1 2-.9c1.9 0 2.6 1.3 2.6 3.8v6.4Zm8.3 0v-.6a2.5 2.5 0 0 1-2 .9c-1.6 0-2.8-1.1-2.8-3.4a3 3 0 0 1 3.3-3.2 3.5 3.5 0 0 1 1.5.3v-1c0-1-.4-1.4-1.3-1.4a3.6 3.6 0 0 0-2 .6l-.8-1.4a5.3 5.3 0 0 1 2.9-1c2.1 0 3 .8 3 3v7.2Zm0-4.3a2.6 2.6 0 0 0-1.5-.4c-.9 0-1.5.5-1.5 1.6s.5 1.7 1.3 1.7a1.8 1.8 0 0 0 1.7-1Zm8.5-3.7a2.3 2.3 0 0 0-1.3-.3 1.6 1.6 0 0 0-1.4.8v7.6h-1.9v-10h1.9v.6a2.3 2.3 0 0 1 1.7-.9 2.5 2.5 0 0 1 1.4.4Zm4.7 11.6h-1.8l1.1-3.6-2.8-10h2l1.2 4.8.6 2.7.5-2.7 1.2-4.7h2Zm13.1-3.6h-3.2V71h3.2c3 0 4.2 2.7 4.2 6.6s-1.4 6.8-4.2 6.8Zm0-11.4h-1.4v9.6h1.4c1.8 0 2.3-2.5 2.3-4.9s-.5-4.7-2.3-4.7ZM312 84.3v-.6a2.5 2.5 0 0 1-2 .9c-1.5 0-2.7-1.1-2.7-3.4a3 3 0 0 1 3.2-3.2 3.5 3.5 0 0 1 1.5.3v-1c0-1-.3-1.4-1.2-1.4a3.7 3.7 0 0 0-2 .6l-.8-1.4a5.4 5.4 0 0 1 2.9-1c2.1 0 3 .8 3 3v7.2Zm0-4.3a2.6 2.6 0 0 0-1.4-.4 1.4 1.4 0 0 0-1.5 1.6c0 1.2.5 1.7 1.3 1.7a1.8 1.8 0 0 0 1.7-1Zm8 4.1a2.8 2.8 0 0 1-1.6.5c-1.4 0-2-1-2-2.6v-6h-1v-1.6h1v-3l1.9-1v4h1.9V76h-2v5.7c0 .7.3 1 .8 1a1.9 1.9 0 0 0 1.2-.4Zm6.2.2v-.6a2.5 2.5 0 0 1-2 .9c-1.5 0-2.8-1.1-2.8-3.4a3 3 0 0 1 3.3-3.2 3.6 3.6 0 0 1 1.5.3v-1c0-1-.4-1.4-1.3-1.4a3.6 3.6 0 0 0-2 .6l-.8-1.4a5.3 5.3 0 0 1 3-1c2 0 3 .8 3 3v7.2Zm0-4.3a2.6 2.6 0 0 0-1.5-.4c-.9 0-1.5.5-1.5 1.6s.5 1.7 1.3 1.7a1.9 1.9 0 0 0 1.7-1Zm11.1 4.6a3.9 3.9 0 0 1-3.6-2.2l1.5-1.2c.7 1.2 1.4 1.5 2.2 1.5A1.5 1.5 0 0 0 339 81c0-1-.4-1.6-2.2-2.8-1.5-1-2.7-2-2.7-4a3.2 3.2 0 0 1 3.4-3.3 3.6 3.6 0 0 1 3.2 1.8l-1.4 1.2c-.6-.9-1-1.2-1.9-1.2a1.3 1.3 0 0 0-1.4 1.4c0 1 .5 1.6 2 2.5 1.6 1 3 2.1 3 4.3a3.4 3.4 0 0 1-3.7 3.7Zm8.5 0c-2.1 0-3.5-1.7-3.5-5.2s1.3-5.2 3.5-5.2a3 3 0 0 1 2.8 1.7l-1.3 1.2c-.5-.9-.9-1.2-1.5-1.2-1.2 0-1.7 1.3-1.7 3.5s.5 3.4 1.7 3.4c.6 0 1-.3 1.5-1l1.4 1a3.2 3.2 0 0 1-3 1.8Zm5.6-11.8a1.1 1.1 0 1 1 1.1-1.1 1.1 1.1 0 0 1-1 1.1Zm-.9 11.5v-10h1.8v10Zm10.8-4.3H356c0 2 .8 2.8 1.8 2.8a2.2 2.2 0 0 0 1.9-.7l1 1.2a4 4 0 0 1-3 1.3c-2.3 0-3.6-2-3.6-5.2 0-3.5 1.5-5.2 3.6-5.2s3.5 1.7 3.5 5.2v.6Zm-3.5-4.1c-1 0-1.6.8-1.7 2.5h3.4c-.1-1.5-.7-2.5-1.7-2.5Zm9.9 8.4v-6c0-1.7-.3-2.4-1.3-2.4a1.8 1.8 0 0 0-1.4 1v7.4h-2v-10h1.9v.7a2.4 2.4 0 0 1 2-.9c1.9 0 2.5 1.3 2.5 3.8v6.4Zm7.1.3c-2.1 0-3.5-1.7-3.5-5.2s1.3-5.2 3.5-5.2a3 3 0 0 1 2.8 1.7l-1.3 1.2c-.5-.9-.9-1.2-1.5-1.2-1.2 0-1.7 1.3-1.7 3.5s.5 3.4 1.7 3.4c.6 0 1-.3 1.5-1l1.3 1a3.2 3.2 0 0 1-2.9 1.8Zm11.1-4.6h-5.2c0 2 .8 2.8 1.9 2.8a2.3 2.3 0 0 0 1.8-.7l1 1.2a4 4 0 0 1-3 1.3c-2.3 0-3.6-2-3.6-5.2 0-3.5 1.4-5.2 3.6-5.2s3.5 1.7 3.5 5.2v.6Zm-3.5-4.1c-1 0-1.5.8-1.7 2.5h3.4c-.1-1.5-.7-2.5-1.7-2.5Z" transform="translate(-21.5 -14)"/><circle class="cls-1" cx="6.6" cy="56.1" r="2.3"/><circle class="cls-2" cx="10.9" cy="62.1" r="2.3"/><circle class="cls-2" cx="16.7" cy="67.3" r="2.3"/><circle class="cls-2" cx="23.3" cy="71.3" r="2.3"/><circle class="cls-2" cx="30" cy="74" r="2.3"/><circle class="cls-2" cx="37.7" cy="74.7" r="2.3"/><circle class="cls-2" cx="45.2" cy="74" r="2.3"/><circle class="cls-2" cx="52.4" cy="71.7" r="2.3"/><circle class="cls-2" cx="64.6" cy="63.1" r="2.3"/><circle class="cls-3" cx="69.3" cy="57.1" r="2.3"/><circle class="cls-2" cx="44.2" cy="65.3" r="2.3"/><circle class="cls-2" cx="37.3" cy="66" r="2.3"/><circle class="cls-3" cx="74.2" cy="43.1" r="2.3"/><circle class="cls-3" cx="74.2" cy="35.5" r="2.3"/><circle class="cls-3" cx="73" cy="28" r="2.3"/><circle class="cls-3" cx="70" cy="21" r="2.3"/><circle class="cls-3" cx="65.7" cy="14.8" r="2.3"/><circle class="cls-3" cx="60.1" cy="9.7" r="2.3"/><circle class="cls-3" cx="72.2" cy="50.5" r="2.3"/><circle class="cls-2" cx="59.3" cy="68.1" r="2.3"/><circle class="cls-3" cx="53.6" cy="5.7" r="2.3"/><circle class="cls-2" cx="51.9" cy="63" r="2.3"/><circle class="cls-3" cx="46.4" cy="3.4" r="2.3"/><circle class="cls-1" cx="39.1" cy="2.3" r="2.3"/><circle class="cls-1" cx="31.4" cy="2.9" r="2.3"/><circle class="cls-1" cx="24.2" cy="5.1" r="2.3"/><circle class="cls-1" cx="17.6" cy="8.7" r="2.3"/><circle class="cls-2" cx="57.3" cy="58.6" r="2.3"/><circle class="cls-3" cx="62.3" cy="52.3" r="2.3"/><circle class="cls-3" cx="64.9" cy="45.6" r="2.3"/><circle class="cls-3" cx="65.8" cy="37.6" r="2.3"/><circle class="cls-3" cx="64.9" cy="29.7" r="2.3"/><circle class="cls-3" cx="61.6" cy="23.5" r="2.3"/><circle class="cls-3" cx="56.7" cy="17.8" r="2.3"/><circle class="cls-1" cx="11.8" cy="13.8" r="2.3"/><circle class="cls-1" cx="7.3" cy="19.9" r="2.3"/><circle class="cls-1" cx="4.2" cy="26.7" r="2.3"/><circle class="cls-1" cx="2.3" cy="34" r="2.3"/><circle class="cls-1" cx="2.3" cy="41.8" r="2.3"/><circle class="cls-1" cx="3.6" cy="49.1" r="2.3"/><circle class="cls-3" cx="50.4" cy="13.8" r="2.3"/><circle class="cls-3" cx="43.3" cy="11.3" r="2.3"/><circle class="cls-1" cx="35.6" cy="11.1" r="2.3"/><circle class="cls-1" cx="28.4" cy="12.6" r="2.3"/><circle class="cls-1" cx="21.8" cy="16.3" r="2.3"/><circle class="cls-2" cx="29.5" cy="64.9" r="2.3"/><circle class="cls-2" cx="23.1" cy="61.7" r="2.3"/><circle class="cls-2" cx="17.2" cy="56.4" r="2.3"/><circle class="cls-1" cx="13.3" cy="50.2" r="2.3"/><circle class="cls-1" cx="11.1" cy="43" r="2.3"/><circle class="cls-1" cx="10.9" cy="35.3" r="2.3"/><circle class="cls-1" cx="12.8" cy="28.1" r="2.3"/><circle class="cls-1" cx="16.6" cy="21.6" r="2.3"/><path class="cls-4" d="M42.3 60.7A18.9 18.9 0 0 1 41 49.2a6.5 6.5 0 0 0 4.5 1.7 14.3 14.3 0 0 0 1 7.5l-4.1 2.3Zm-1-13a5 5 0 0 0 1.4 1.1 5 5 0 0 0 3 .7 14.3 14.3 0 0 1 4.2-7.3 5.1 5.1 0 0 0-2.1-2.2h-.1a5.4 5.4 0 0 0-1.6-.6 19 19 0 0 0-4.8 8.3Zm6-9.5a18.5 18.5 0 0 1 2.8-2 19 19 0 0 1 7.9-2.4v4.7a14.3 14.3 0 0 0-5.5 1.8 14.6 14.6 0 0 0-1.5 1 6.6 6.6 0 0 0-2.3-2.4l-.2-.1a6 6 0 0 0-1.2-.6Z" transform="translate(-21.5 -14)"/><path class="cls-5" d="M75.1 63.7a19 19 0 0 1-9.2 7 6.2 6.2 0 0 0 .1-1.3v-.2a6.5 6.5 0 0 0-1-3.2 14 14 0 0 0 1.7-.8 14.2 14.2 0 0 0 4.4-3.9l2 1.2 2 1.2Zm-10.8 7.5a5.4 5.4 0 0 0 .4-1.8 5.1 5.1 0 0 0-1-2.9 14.3 14.3 0 0 1-8.4 0 5.1 5.1 0 0 0-.9 2.9 5.1 5.1 0 0 0 .3 1.8 19.1 19.1 0 0 0 9.6 0Zm-11.1-.5a19 19 0 0 1-9.2-7l4-2.4a14.3 14.3 0 0 0 6 4.7 6.5 6.5 0 0 0-1 3.4v.1a7.1 7.1 0 0 0 .2 1.2Z" transform="translate(-21.5 -14)"/><path class="cls-6" d="M76 43.3a19.4 19.4 0 0 1 2 4.5 5 5 0 0 1-1.4 1.2 5.2 5.2 0 0 1-3 .7 14 14 0 0 0-1.5-4 14.2 14.2 0 0 0-2.6-3.3 5.1 5.1 0 0 1 3.7-2.9 19 19 0 0 1 2.9 3.8Zm2.3 6.1a19 19 0 0 1-1.5 11.4l-2-1.1-2-1.2a14.4 14.4 0 0 0 1-7.5 6.4 6.4 0 0 0 4.5-1.6Zm-10-8a14.3 14.3 0 0 0-7-3v-4.6A19 19 0 0 1 72 38.4a5.9 5.9 0 0 0-1.1.5 6.4 6.4 0 0 0-2.5 2.5Z" transform="translate(-21.5 -14)"/><path class="cls-4" d="M49.6 47a5.1 5.1 0 0 0-1.8-7h-.1a5.1 5.1 0 1 0 2 7Z" transform="translate(-21.5 -14)"/><path class="cls-6" d="M69.6 47a5.1 5.1 0 1 0 9-5 5.1 5.1 0 1 0-9 5Z" transform="translate(-21.5 -14)"/><path class="cls-5" d="M59.6 64.3a5.1 5.1 0 0 0-5.2 5 5.1 5.1 0 0 0 5 5.2 5 5 0 0 0 3.7-1.5 5.2 5.2 0 0 0 1.6-3.6 5.2 5.2 0 0 0-1.5-3.6 5 5 0 0 0-3.6-1.5Z" transform="translate(-21.5 -14)"/><path class="cls-1" d="m130.4 62.4-3.2-.1a114 114 0 0 0-8.6-.3h-2.1l-2 .2h-2.6a3 3 0 0 1-1-.1.6.6 0 0 1-.5-.6.7.7 0 0 1 .4-.7 6 6 0 0 1 1.3-.3 5.5 5.5 0 0 0 3-1.3 4 4 0 0 0 .8-2.8V30.6a3.8 3.8 0 0 0-.8-2.7 6 6 0 0 0-3-1.3 4.1 4.1 0 0 1-1.3-.4.8.8 0 0 1-.4-.7.7.7 0 0 1 .4-.6 2.6 2.6 0 0 1 1.1-.2h2.5l2.1.2h4.7l3-.3 3-.1h2.1a28 28 0 0 1 9.2 1.3 18 18 0 0 1 6.6 3.9 16.3 16.3 0 0 1 4 5.8 19 19 0 0 1 1.3 7.1 19.8 19.8 0 0 1-1.4 7.6 19.5 19.5 0 0 1-4.2 6.3 19.7 19.7 0 0 1-6.3 4.3 20 20 0 0 1-8.1 1.6Zm-.8-2.3A13.1 13.1 0 0 0 137 58a13.4 13.4 0 0 0 4.8-5.7 19.9 19.9 0 0 0 1.7-8.5 20.2 20.2 0 0 0-1.1-7.2 16.5 16.5 0 0 0-3.3-5.4 13.7 13.7 0 0 0-10.2-4.6 45 45 0 0 0-3.8.2 4.5 4.5 0 0 0-2.3.8 2.5 2.5 0 0 0-.8 2V55a4.6 4.6 0 0 0 1 3.2 5.4 5.4 0 0 0 2.8 1.5 17 17 0 0 0 3.8.5Zm43.1 3c-.3 0-.5-.1-.5-.5a13.8 13.8 0 0 1 .2-1.7 15.8 15.8 0 0 0 .1-1.8v-.5a14.4 14.4 0 0 1-4.3 3.1 11.7 11.7 0 0 1-5 1.1 6.4 6.4 0 0 1-3.3-.9 5.8 5.8 0 0 1-2.3-2.4 8.4 8.4 0 0 1-.8-3.9V44.3a3.4 3.4 0 0 0-.5-2 3.3 3.3 0 0 0-1.9-1.1 2.1 2.1 0 0 1-.5-.4.8.8 0 0 1-.3-.6.8.8 0 0 1 .3-.7 1.3 1.3 0 0 1 .6-.3 28.4 28.4 0 0 0 3.4-.4c1-.1 2-.4 3.1-.7h.4a2 2 0 0 1 .4 0c.4 0 .6.2.6.7L162 41a18.8 18.8 0 0 0-.1 2.2v11a5.1 5.1 0 0 0 .6 2.5 5 5 0 0 0 1.6 1.8 4 4 0 0 0 2.1.8 11.7 11.7 0 0 0 2.4-.2 4.4 4.4 0 0 0 2-1 8.4 8.4 0 0 0 1.3-1.4 4.2 4.2 0 0 0 .8-2.7V44a2.4 2.4 0 0 0-.6-1.7 3.7 3.7 0 0 0-1.5-1 6.3 6.3 0 0 0-1.5-.3 1.6 1.6 0 0 1-.9-.2.9.9 0 0 1-.3-.8.8.8 0 0 1 .4-.7 1.8 1.8 0 0 1 .8-.2 156.6 156.6 0 0 0 5.9-.6c.6 0 1.3-.2 2-.4a.9.9 0 0 1 .4-.1h.3c.5 0 .7.2.7.6a1.8 1.8 0 0 1 0 .3 2.4 2.4 0 0 1 0 .3 7.6 7.6 0 0 0-.2 1l-.2 1.7a13.6 13.6 0 0 0 0 1.4v13.1a4.7 4.7 0 0 0 .3 2q.3.6.7.6t1.1 0l1.2-.1a1.2 1.2 0 0 1 .6.2.8.8 0 0 1 .3.6.8.8 0 0 1-.3.7 1.1 1.1 0 0 1-.6.3 20.3 20.3 0 0 0-4.2.9l-3.2 1.1-.6.3a2 2 0 0 1-.7.1Zm12.3-.9c-.8 0-1.3-.3-1.3-.7a.6.6 0 0 1 .4-.6l1-.4a10.4 10.4 0 0 0 1.5-.7 1.6 1.6 0 0 0 .8-1.6V30a6.3 6.3 0 0 0-.5-2.9 2.8 2.8 0 0 0-2-1.3c-.3 0-.5-.3-.5-.8s.2-.6.5-.7a19.5 19.5 0 0 0 2.8-.8l2.3-.8 2-.8a1.7 1.7 0 0 1 .7-.2.3.3 0 0 1 .3.2.8.8 0 0 1 0 .4 19.3 19.3 0 0 1-.1 2 33.6 33.6 0 0 0-.2 4.3v19.6c0 .4 0 .6.3.6a1.8 1.8 0 0 0 .8-.2 4.5 4.5 0 0 0 .9-.7 49.2 49.2 0 0 0 3.8-3.6l2.2-2.5.4-.5a.7.7 0 0 0 .1-.4c0-.2-.1-.3-.5-.5a4 4 0 0 0-1-.4c-.5 0-.8-.2-.8-.6a.6.6 0 0 1 .4-.5 1.9 1.9 0 0 1 .9-.2h2.8a20 20 0 0 0 2.1-.1l2.4-.3a12 12 0 0 1 1.7-.2c.5 0 .7.2.7.6a.8.8 0 0 1-.3.6 2.8 2.8 0 0 1-1 .5 9.7 9.7 0 0 0-2.1.8l-2 1a19.7 19.7 0 0 0-2 1.3l-2.5 2-2.5 2.2a.8.8 0 0 0-.4.6.3.3 0 0 0 .1.2l.2.2 3 3.7 2.9 3.3 2.2 2.4a11.5 11.5 0 0 0 2.2 1.7 18.6 18.6 0 0 0 2.2 1l1 .5a.7.7 0 0 1 .6.6c0 .5-.4.7-1.1.7H199c-.7 0-1-.2-1-.6a.8.8 0 0 1 .2-.6 2 2 0 0 1 .8-.4 5.1 5.1 0 0 0 1-.5.8.8 0 0 0 .3-.7.9.9 0 0 0-.1-.4 3.2 3.2 0 0 0-.3-.5l-6.5-7.8c-.1-.2-.3-.3-.5-.3s-.2.2-.2.4v7.6a1.9 1.9 0 0 0 .5 1.5 4 4 0 0 0 1.3.7l.9.4a.7.7 0 0 1 .4.7.6.6 0 0 1-.5.5 2.8 2.8 0 0 1-.7.1 16.6 16.6 0 0 1-1.8 0l-1.2-.2h-3.3l-1.4.2H185Zm37.7.7a9.7 9.7 0 0 1-5.5-1.6 10.8 10.8 0 0 1-3.7-4.4 14.8 14.8 0 0 1-1.4-6.5 12.6 12.6 0 0 1 5.8-10.7 10.5 10.5 0 0 1 5.7-1.6 9.1 9.1 0 0 1 4.2.9 7.2 7.2 0 0 1 3 2.6 7 7 0 0 1 1 3.9c0 1.2-.6 1.8-1.8 1.8h-11.8a1.3 1.3 0 0 0-1.1.5 2.9 2.9 0 0 0-.4 1.7A9.4 9.4 0 0 0 218 54a9.3 9.3 0 0 0 3 3.4 7.3 7.3 0 0 0 4.1 1.2 7.2 7.2 0 0 0 3.1-.6 9.2 9.2 0 0 0 2.6-1.9 2.2 2.2 0 0 1 .3-.3.5.5 0 0 1 .4-.1q.5 0 .5.6a4.3 4.3 0 0 1-.8 2.2 10 10 0 0 1-4.9 3.8 10.2 10.2 0 0 1-3.5.6Zm-4.4-17.5h6.9a10.7 10.7 0 0 0 1.6-.2.7.7 0 0 0 .4-.5 3.1 3.1 0 0 0 0-1A3.4 3.4 0 0 0 226 41a4.6 4.6 0 0 0-3.1-1.1 4.8 4.8 0 0 0-2.5.7 6.8 6.8 0 0 0-2 1.9 3.5 3.5 0 0 0-.8 2.2.6.6 0 0 0 .7.7Zm29.9 16.8a4 4 0 0 1-1.2-.1.6.6 0 0 1-.4-.6.6.6 0 0 1 .5-.6 9.7 9.7 0 0 1 1.3-.4 4.4 4.4 0 0 0 2.3-1.4 5.9 5.9 0 0 0 1.3-3l1-8.6.8-8.4.4-7v-1.9a3.4 3.4 0 0 0-.2-1.2 2 2 0 0 0-.8-1 6.1 6.1 0 0 0-1.9-1 15.6 15.6 0 0 0-2-.5 2.1 2.1 0 0 1-1-.5.9.9 0 0 1-.4-.7.6.6 0 0 1 .5-.6 6.7 6.7 0 0 1 1.3-.1h2l2.5.2 2.8.1h2.1a1.2 1.2 0 0 1 .7.3 1.2 1.2 0 0 1 .5.8l.6 2 .7 2.3 8.8 21.8a.7.7 0 0 0 .5.4.5.5 0 0 0 .6-.3l10.1-21.8a50.6 50.6 0 0 0 1.1-4.6c.1-.6.3-.8.7-.8h2.2a35 35 0 0 0 4-.2 31 31 0 0 1 3.4-.3 3 3 0 0 1 .8.2.6.6 0 0 1 .5.5.8.8 0 0 1-.4.7 6 6 0 0 1-1 .5l-1.4.5-1.4.6a3.5 3.5 0 0 0-1.4 1 2.5 2.5 0 0 0-.5 1.8 138.3 138.3 0 0 0 .5 13.7l.4 6 .4 6.5a3.6 3.6 0 0 0 1.2 2.6 6.5 6.5 0 0 0 3 1.3 5 5 0 0 1 1.3.4.7.7 0 0 1 .4.7.6.6 0 0 1-.4.5 3 3 0 0 1-1 .2h-2.7L289 62h-4.5l-2 .1-2.6.1a3.5 3.5 0 0 1-1-.1.6.6 0 0 1-.5-.6.8.8 0 0 1 .5-.6 3 3 0 0 1 1.2-.4 3.8 3.8 0 0 0 2.5-1.2 4.5 4.5 0 0 0 .7-2.8l-.2-7.3-.2-6.6-.4-7c0-.3 0-.4-.2-.4s-.4.2-.6.5l-12.3 26.5a.6.6 0 0 1-.6.4.6.6 0 0 1-.6-.4q-2.5-6.7-5.2-13.2l-5.6-13.5a.4.4 0 0 0-.5-.3c-.2 0-.4.2-.4.5a366 366 0 0 0-1.2 13.6 151 151 0 0 0-.1 6.8 4 4 0 0 0 1 2.8 5 5 0 0 0 2.9 1.6 6.3 6.3 0 0 1 1.3.4.7.7 0 0 1 .5.6c0 .3-.1.4-.4.6a3.3 3.3 0 0 1-1.2.1 22.4 22.4 0 0 1-2.3 0l-1.4-.2h-3.8l-1.6.2h-2Zm51.5 0a3.5 3.5 0 0 1-1-.1.6.6 0 0 1-.5-.6q0-.7 1.7-1a7 7 0 0 0 3.2-1.3 3.4 3.4 0 0 0 1-2.8V30.6a4 4 0 0 0-.8-2.7 5.8 5.8 0 0 0-3-1.3c-1.1-.2-1.7-.6-1.7-1.1a.6.6 0 0 1 .4-.6 2.7 2.7 0 0 1 1-.2h2.7l2.2.2h9.3a3.4 3.4 0 0 1 1 0 .5.5 0 0 1 .5.6.8.8 0 0 1-.4.7 4.2 4.2 0 0 1-1.3.4 7.2 7.2 0 0 0-3 1.3 3.6 3.6 0 0 0-.9 2.8v25.7a3.3 3.3 0 0 0 1.1 2.7 7.8 7.8 0 0 0 3.2 1.4 4.7 4.7 0 0 1 1.3.4.7.7 0 0 1 .3.6.6.6 0 0 1-.3.6 2.7 2.7 0 0 1-1 .1H312l-2.3-.2h-4.9l-2.4.1-2.7.1Zm38.7.2-3.1-.1a114 114 0 0 0-8.6-.3h-2.2l-2 .2H320a3 3 0 0 1-1.1-.1.6.6 0 0 1-.4-.6.7.7 0 0 1 .4-.7 6 6 0 0 1 1.2-.3 5.5 5.5 0 0 0 3-1.3 4 4 0 0 0 .9-2.8V30.6a3.8 3.8 0 0 0-.9-2.7 6 6 0 0 0-3-1.3 4.1 4.1 0 0 1-1.2-.4.8.8 0 0 1-.4-.7.7.7 0 0 1 .4-.6 2.6 2.6 0 0 1 1-.2h2.6l2 .2h4.8l3-.3 3-.1h2a28 28 0 0 1 9.3 1.3 18 18 0 0 1 6.5 3.9 16.3 16.3 0 0 1 4 5.8 19 19 0 0 1 1.4 7.1 19.8 19.8 0 0 1-1.5 7.6 19.5 19.5 0 0 1-4.2 6.3 19.7 19.7 0 0 1-6.3 4.3 20 20 0 0 1-8 1.6Zm-.7-2.3A13.2 13.2 0 0 0 345 58a13.5 13.5 0 0 0 4.8-5.7 19.9 19.9 0 0 0 1.7-8.5 20.2 20.2 0 0 0-1.2-7.2 16.7 16.7 0 0 0-3.2-5.4 13.8 13.8 0 0 0-4.6-3.4 13.6 13.6 0 0 0-5.6-1.2 45 45 0 0 0-3.8.2 4.4 4.4 0 0 0-2.4.8 2.5 2.5 0 0 0-.8 2V55a4.6 4.6 0 0 0 1.1 3.3 5.4 5.4 0 0 0 2.8 1.5 17 17 0 0 0 3.9.4Zm34.5 2.8a15 15 0 0 1-4.5-.7 12.8 12.8 0 0 1-4-2 7 7 0 0 1-.4-.5 2.3 2.3 0 0 1-.4-.7 16 16 0 0 1-.5-3.3l-.2-3.5a.7.7 0 0 1 .3-.6 1.6 1.6 0 0 1 .8-.2 1.3 1.3 0 0 1 .7.2.8.8 0 0 1 .4.5 13.4 13.4 0 0 0 3.5 6.5 7.4 7.4 0 0 0 5.1 2.1 6.3 6.3 0 0 0 3.3-.8 6 6 0 0 0 2.2-2.3 6.6 6.6 0 0 0 .8-3.3 7.4 7.4 0 0 0-.7-3.5 7.7 7.7 0 0 0-2.2-2.5A38.6 38.6 0 0 0 373 46l-4.5-2.9a13.8 13.8 0 0 1-3.6-3.4 8.2 8.2 0 0 1-1.5-5 10.2 10.2 0 0 1 1.5-5.4 10 10 0 0 1 4.2-3.8 16.7 16.7 0 0 1 10.5-1 17.6 17.6 0 0 1 2.7 1 1.8 1.8 0 0 1 .8.5 3 3 0 0 1 .5 1l.6 2.8a15.4 15.4 0 0 1 .3 3.2c0 .5-.3.7-.9.7a2 2 0 0 1-1-.3 1 1 0 0 1-.5-.5 12.7 12.7 0 0 0-2.8-4.9 5.8 5.8 0 0 0-4.2-1.6 7.8 7.8 0 0 0-3.1.6 4.8 4.8 0 0 0-2.2 2 6.6 6.6 0 0 0-.9 3.4 4.6 4.6 0 0 0 1.1 2.9 12.7 12.7 0 0 0 2.9 2.6l4 2.5a38.2 38.2 0 0 1 4.2 3 12.1 12.1 0 0 1 3 3.5 9.6 9.6 0 0 1 1 4.7 11.3 11.3 0 0 1-1.5 6.1 10 10 0 0 1-4.5 3.9 16 16 0 0 1-6.8 1.3Z" transform="translate(-21.5 -14)"/></svg>